<?xml version="1.0" standalone="no"?><svg xmlns="http://www.w3.org/2000/svg" viewBox="0 0 1440 320"><path fill="#2c2f33" fill-opacity="1" d="M0,96L30,112C60,128,120,160,180,176C240,192,300,192,360,165.3C420,139,480,85,540,85.3C600,85,660,139,720,144C780,149,840,107,900,106.7C960,107,1020,149,1080,149.3C1140,149,1200,107,1260,96C1320,85,1380,107,1410,117.3L1440,128L1440,320L1410,320C1380,320,1320,320,1260,320C1200,320,1140,320,1080,320C1020,320,960,320,900,320C840,320,780,320,720,320C660,320,600,320,540,320C480,320,420,320,360,320C300,320,240,320,180,320C120,320,60,320,30,320L0,320Z"></path></svg>